<svg xmlns="http://www.w3.org/2000/svg" viewBox="0 0 800 800">
  <defs><style>.moon{{fill:#000}} .crow{{fill:#000}} .kbd{{fill:#000}}</style></defs>
  <path class="moon" d="M400,100a300,300 0 1,0 0,600c-120,-30 -210,-140 -210,-300s90,-270 210,-300z"/>
  <g class="kbd" transform="translate(350,520) scale(0.9)">
    <rect x="-180" y="-60" rx="22" ry="22" width="360" height="120"/>
  </g>
  <path class="crow" d="M260,430c70,-120 160,-170 260,-120 30,15 70,60 80,140 2,15 3,35-1,50
                         -10,-30 -30,-60 -60,-75 -20,-10 -30,5 -40,20 -35,50 -130,80 -180,90
                         20,10 45,35 55,55 -25,-10 -60,-35 -85,-65 -30,10 -100,40 -130,55 50,-55 95,-95 101,-150z"/>
</svg>